<svg xmlns="http://www.w3.org/2000/svg" viewBox="0 0 40 40"><defs><style>.cls-1{fill:transparent;}.cls-2{fill:gray;}</style></defs><title>1</title><g id="Layer_1" data-name="Layer 1"><rect class="cls-1" x="-238.81" y="-14.53" width="685.11" height="71.33"/></g><g id="Layer_2" data-name="Layer 2"><g id="icon_search" data-name="icon/search"><g id="Group"><path id="Shape" class="cls-2" d="M38.05,20.31A18.42,18.42,0,1,0,19.64,38.72,18.4,18.4,0,0,0,38.05,20.31Zm-35,0a16.61,16.61,0,0,1,33.22,0,16.31,16.31,0,0,1-5,11.85,13.39,13.39,0,0,0-11.63-6.65A13.55,13.55,0,0,0,8,32.16,16.59,16.59,0,0,1,3,20.31ZM9.41,33.38a11.71,11.71,0,0,1,10.23-6.06,11.56,11.56,0,0,1,10.22,6.06,16.57,16.57,0,0,1-20.45,0Z"/><path id="Shape-2" data-name="Shape" class="cls-2" d="M19.64,23.38a7.17,7.17,0,1,0-7.17-7.17A7.19,7.19,0,0,0,19.64,23.38Zm0-12.54a5.38,5.38,0,1,1-5.38,5.37A5.39,5.39,0,0,1,19.64,10.84Z"/></g></g></g></svg>
